<mxfile host="Electron" modified="2024-05-08T23:55:00.274Z" agent="Mozilla/5.0 (Windows NT 10.0; Win64; x64) AppleWebKit/537.36 (KHTML, like Gecko) draw.io/24.2.5 Chrome/120.0.6099.109 Electron/28.1.0 Safari/537.36" etag="1zZu_hrmv_kOKZJkEt2t" version="24.2.5" type="device">
  <diagram name="Page-1" id="2YBvvXClWsGukQMizWep">
    <mxGraphModel dx="-324" dy="614" grid="1" gridSize="10" guides="1" tooltips="1" connect="1" arrows="1" fold="1" page="1" pageScale="1" pageWidth="850" pageHeight="1100" math="0" shadow="0">
      <root>
        <mxCell id="0" />
        <mxCell id="1" parent="0" />
        <mxCell id="jrzBnbHg1QZSNOtPmrHK-5" value=":Patient&amp;nbsp;" style="html=1;whiteSpace=wrap;" parent="1" vertex="1">
          <mxGeometry x="920" y="50" width="110" height="50" as="geometry" />
        </mxCell>
        <mxCell id="jrzBnbHg1QZSNOtPmrHK-8" value="" style="html=1;points=[[0,0,0,0,5],[0,1,0,0,-5],[1,0,0,0,5],[1,1,0,0,-5]];perimeter=orthogonalPerimeter;outlineConnect=0;targetShapes=umlLifeline;portConstraint=eastwest;newEdgeStyle={&quot;curved&quot;:0,&quot;rounded&quot;:0};" parent="1" vertex="1">
          <mxGeometry x="970" y="110" width="10" height="430" as="geometry" />
        </mxCell>
        <mxCell id="jrzBnbHg1QZSNOtPmrHK-10" style="edgeStyle=orthogonalEdgeStyle;rounded=0;orthogonalLoop=1;jettySize=auto;html=1;exitX=0.5;exitY=1;exitDx=0;exitDy=0;entryX=0;entryY=0;entryDx=0;entryDy=5;entryPerimeter=0;" parent="1" source="jrzBnbHg1QZSNOtPmrHK-5" target="jrzBnbHg1QZSNOtPmrHK-8" edge="1">
          <mxGeometry relative="1" as="geometry" />
        </mxCell>
        <mxCell id="jrzBnbHg1QZSNOtPmrHK-23" style="edgeStyle=orthogonalEdgeStyle;rounded=0;orthogonalLoop=1;jettySize=auto;html=1;curved=0;" parent="1" source="jrzBnbHg1QZSNOtPmrHK-11" target="jrzBnbHg1QZSNOtPmrHK-20" edge="1">
          <mxGeometry relative="1" as="geometry">
            <Array as="points">
              <mxPoint x="1340" y="210" />
              <mxPoint x="1340" y="210" />
            </Array>
          </mxGeometry>
        </mxCell>
        <mxCell id="jrzBnbHg1QZSNOtPmrHK-35" style="edgeStyle=orthogonalEdgeStyle;rounded=0;orthogonalLoop=1;jettySize=auto;html=1;curved=0;" parent="1" edge="1">
          <mxGeometry relative="1" as="geometry">
            <Array as="points">
              <mxPoint x="1330" y="340" />
              <mxPoint x="1330" y="340" />
            </Array>
            <mxPoint x="1190" y="340" as="sourcePoint" />
            <mxPoint x="1420" y="340" as="targetPoint" />
          </mxGeometry>
        </mxCell>
        <mxCell id="jrzBnbHg1QZSNOtPmrHK-39" style="edgeStyle=orthogonalEdgeStyle;rounded=0;orthogonalLoop=1;jettySize=auto;html=1;curved=0;" parent="1" edge="1">
          <mxGeometry relative="1" as="geometry">
            <mxPoint x="1190" y="470" as="sourcePoint" />
            <mxPoint x="1420" y="470" as="targetPoint" />
            <Array as="points">
              <mxPoint x="1380" y="470" />
              <mxPoint x="1380" y="470" />
            </Array>
          </mxGeometry>
        </mxCell>
        <mxCell id="jrzBnbHg1QZSNOtPmrHK-11" value="" style="html=1;points=[[0,0,0,0,5],[0,1,0,0,-5],[1,0,0,0,5],[1,1,0,0,-5]];perimeter=orthogonalPerimeter;outlineConnect=0;targetShapes=umlLifeline;portConstraint=eastwest;newEdgeStyle={&quot;curved&quot;:0,&quot;rounded&quot;:0};" parent="1" vertex="1">
          <mxGeometry x="1180" y="100" width="10" height="440" as="geometry" />
        </mxCell>
        <mxCell id="jrzBnbHg1QZSNOtPmrHK-13" value="[Goes for visit]" style="text;html=1;align=center;verticalAlign=middle;resizable=0;points=[];autosize=1;strokeColor=none;fillColor=none;" parent="1" vertex="1">
          <mxGeometry x="1070" y="110" width="100" height="30" as="geometry" />
        </mxCell>
        <mxCell id="jrzBnbHg1QZSNOtPmrHK-15" value=":Doctor" style="html=1;whiteSpace=wrap;" parent="1" vertex="1">
          <mxGeometry x="1130" y="40" width="110" height="50" as="geometry" />
        </mxCell>
        <mxCell id="jrzBnbHg1QZSNOtPmrHK-16" style="edgeStyle=orthogonalEdgeStyle;rounded=0;orthogonalLoop=1;jettySize=auto;html=1;exitX=0.5;exitY=1;exitDx=0;exitDy=0;entryX=1;entryY=0;entryDx=0;entryDy=5;entryPerimeter=0;" parent="1" source="jrzBnbHg1QZSNOtPmrHK-15" target="jrzBnbHg1QZSNOtPmrHK-11" edge="1">
          <mxGeometry relative="1" as="geometry" />
        </mxCell>
        <mxCell id="jrzBnbHg1QZSNOtPmrHK-19" value=":System" style="whiteSpace=wrap;html=1;" parent="1" vertex="1">
          <mxGeometry x="1360" y="40" width="130" height="50" as="geometry" />
        </mxCell>
        <mxCell id="jrzBnbHg1QZSNOtPmrHK-20" value="" style="html=1;points=[[0,0,0,0,5],[0,1,0,0,-5],[1,0,0,0,5],[1,1,0,0,-5]];perimeter=orthogonalPerimeter;outlineConnect=0;targetShapes=umlLifeline;portConstraint=eastwest;newEdgeStyle={&quot;curved&quot;:0,&quot;rounded&quot;:0};" parent="1" vertex="1">
          <mxGeometry x="1420" y="120" width="10" height="420" as="geometry" />
        </mxCell>
        <mxCell id="jrzBnbHg1QZSNOtPmrHK-22" style="edgeStyle=orthogonalEdgeStyle;rounded=0;orthogonalLoop=1;jettySize=auto;html=1;exitX=0.5;exitY=1;exitDx=0;exitDy=0;entryX=1;entryY=0;entryDx=0;entryDy=5;entryPerimeter=0;" parent="1" source="jrzBnbHg1QZSNOtPmrHK-19" target="jrzBnbHg1QZSNOtPmrHK-20" edge="1">
          <mxGeometry relative="1" as="geometry" />
        </mxCell>
        <mxCell id="jrzBnbHg1QZSNOtPmrHK-24" value="[Check Patient]" style="text;html=1;align=center;verticalAlign=middle;resizable=0;points=[];autosize=1;strokeColor=none;fillColor=none;" parent="1" vertex="1">
          <mxGeometry x="1220" y="180" width="100" height="30" as="geometry" />
        </mxCell>
        <mxCell id="jrzBnbHg1QZSNOtPmrHK-25" value="Patient infor&amp;nbsp;" style="html=1;verticalAlign=bottom;endArrow=open;dashed=1;endSize=8;curved=0;rounded=0;exitX=1.004;exitY=0.383;exitDx=0;exitDy=0;exitPerimeter=0;" parent="1" source="4Bl-__GHZ4EctMaMrnRc-4" target="jrzBnbHg1QZSNOtPmrHK-11" edge="1">
          <mxGeometry relative="1" as="geometry">
            <mxPoint x="1305" y="260" as="sourcePoint" />
            <mxPoint x="1190" y="250" as="targetPoint" />
          </mxGeometry>
        </mxCell>
        <mxCell id="jrzBnbHg1QZSNOtPmrHK-33" value="" style="html=1;verticalAlign=bottom;endArrow=open;dashed=1;endSize=8;curved=0;rounded=0;exitX=0;exitY=0.5;exitDx=0;exitDy=0;" parent="1" target="jrzBnbHg1QZSNOtPmrHK-11" edge="1">
          <mxGeometry x="-1" y="95" relative="1" as="geometry">
            <mxPoint x="1180" y="250" as="sourcePoint" />
            <mxPoint x="1195" y="154.44" as="targetPoint" />
            <mxPoint x="-5" y="-30" as="offset" />
          </mxGeometry>
        </mxCell>
        <mxCell id="jrzBnbHg1QZSNOtPmrHK-36" value="[Create Patient]" style="text;html=1;align=center;verticalAlign=middle;resizable=0;points=[];autosize=1;strokeColor=none;fillColor=none;" parent="1" vertex="1">
          <mxGeometry x="1250" y="305" width="110" height="30" as="geometry" />
        </mxCell>
        <mxCell id="jrzBnbHg1QZSNOtPmrHK-37" value="[Medical Record]" style="html=1;verticalAlign=bottom;endArrow=open;dashed=1;endSize=8;curved=0;rounded=0;" parent="1" edge="1">
          <mxGeometry relative="1" as="geometry">
            <mxPoint x="1180" y="500" as="sourcePoint" />
            <mxPoint x="980" y="500" as="targetPoint" />
          </mxGeometry>
        </mxCell>
        <mxCell id="jrzBnbHg1QZSNOtPmrHK-40" value="[Add new medical record]" style="text;html=1;align=center;verticalAlign=middle;resizable=0;points=[];autosize=1;strokeColor=none;fillColor=none;" parent="1" vertex="1">
          <mxGeometry x="1210" y="440" width="160" height="30" as="geometry" />
        </mxCell>
        <mxCell id="jrzBnbHg1QZSNOtPmrHK-41" value="" style="html=1;verticalAlign=bottom;startArrow=oval;startFill=1;endArrow=block;startSize=8;curved=0;rounded=0;" parent="1" edge="1">
          <mxGeometry width="60" relative="1" as="geometry">
            <mxPoint x="1050" y="140" as="sourcePoint" />
            <mxPoint x="1180" y="140" as="targetPoint" />
          </mxGeometry>
        </mxCell>
        <mxCell id="4Bl-__GHZ4EctMaMrnRc-4" value="opt" style="shape=umlFrame;whiteSpace=wrap;html=1;pointerEvents=0;" vertex="1" parent="1">
          <mxGeometry x="970" y="180" width="450" height="200" as="geometry" />
        </mxCell>
        <mxCell id="4Bl-__GHZ4EctMaMrnRc-5" value="" style="endArrow=none;dashed=1;html=1;rounded=0;exitX=-0.003;exitY=0.599;exitDx=0;exitDy=0;exitPerimeter=0;" edge="1" parent="1" source="4Bl-__GHZ4EctMaMrnRc-4" target="jrzBnbHg1QZSNOtPmrHK-20">
          <mxGeometry width="50" height="50" relative="1" as="geometry">
            <mxPoint x="1180" y="300" as="sourcePoint" />
            <mxPoint x="1230" y="250" as="targetPoint" />
          </mxGeometry>
        </mxCell>
      </root>
    </mxGraphModel>
  </diagram>
</mxfile>
